<?xml version="1.0" standalone="no"?>
<!DOCTYPE svg PUBLIC "-//W3C//DTD SVG 20010904//EN" "http://www.w3.org/TR/2001/REC-SVG-20010904/DTD/svg10.dtd">
<svg version="1.0" xmlns="http://www.w3.org/2000/svg" width="700.000000pt" height="233.000000pt"
    viewBox="0 0 700.000000 233.000000" preserveAspectRatio="xMidYMid meet">

    <g transform="translate(0.000000,233.000000) scale(0.100000,-0.100000)" fill="#000000" stroke="none">
        <g fill="#e32224">
            <path d="M210 1405 c0 -448 2 -815 4 -815 3 0 33 54 68 120 35 66 66 120 70
    120 3 0 9 -39 13 -87 4 -49 10 -108 14 -132 l6 -44 215 323 c118 177 216 318
    218 312 1 -5 -20 -132 -48 -282 -28 -150 -50 -274 -48 -275 2 -1 28 16 58 39
    262 195 786 579 798 583 8 4 0 -16 -20 -48 -30 -46 -530 -811 -583 -893 l-19
    -28 45 7 c24 4 188 31 363 61 176 30 321 52 324 50 2 -3 -144 -79 -324 -170
    l-329 -165 568 0 567 -1 0 1070 0 1070 -980 0 -980 0 0 -815z" />
            <path d="M2405 1601 l-50 -6 -1 -307 0 -308 69 0 70 0 -7 165 c-4 91 -3 165 1
165 4 0 52 -74 106 -165 l98 -165 59 0 60 0 0 213 c0 116 3 256 7 310 l6 98
-69 -3 -69 -3 3 -162 c2 -89 -1 -164 -6 -166 -8 -6 -53 65 -154 242 -30 52
-58 95 -63 96 -6 1 -32 -1 -60 -4z" />
            <path d="M3915 1601 l-50 -6 0 -42 c1 -24 2 -162 3 -307 l2 -264 34 -6 c19 -4
46 -4 60 0 l26 6 0 134 c0 126 1 134 22 148 30 21 55 20 68 -3 5 -11 10 -78
10 -149 l0 -130 34 -6 c19 -4 46 -4 60 0 l26 6 0 175 c0 223 -13 253 -109 253
-28 0 -48 -7 -69 -25 -17 -14 -33 -25 -36 -25 -3 0 -6 56 -6 125 0 94 -3 125
-12 123 -7 0 -35 -4 -63 -7z" />
            <path d="M3590 1470 c0 -58 -4 -81 -14 -87 -9 -5 -16 -28 -18 -58 -2 -41 0
-52 17 -60 17 -9 19 -21 20 -128 0 -117 0 -119 28 -143 33 -28 79 -31 136 -8
33 13 39 21 45 52 11 69 10 71 -35 69 -51 -2 -59 10 -59 91 l0 62 45 0 45 0 0
71 0 71 -42 -4 -43 -3 -3 67 -3 67 -50 10 c-27 6 -54 11 -59 11 -6 0 -10 -36
-10 -80z" />
            <path d="M2981 1403 c-66 -33 -108 -136 -98 -243 10 -110 71 -181 162 -187 66
-5 111 19 150 82 28 45 30 56 30 139 0 79 -3 97 -25 136 -45 80 -140 112 -219
73z m94 -119 c21 -8 45 -56 45 -89 0 -32 -24 -81 -44 -88 -61 -24 -108 71 -71
143 19 36 39 46 70 34z" />
            <path d="M3321 1398 c-40 -9 -43 -11 -37 -36 4 -15 9 -107 13 -204 l6 -178 58
0 59 0 0 124 c0 136 0 136 66 136 l34 0 0 80 c0 79 0 80 -26 80 -14 0 -38 -9
-54 -20 -29 -21 -40 -18 -40 12 0 20 -12 21 -79 6z" />
          
         
        </g>
<g fill="#fff">
        <path d="M3876 788 c-37 -52 -6 -128 52 -128 36 0 48 9 62 44 20 53 -13 106
        -66 106 -23 0 -38 -7 -48 -22z" />
                    <path d="M5520 790 c-26 -26 -26 -70 1 -104 42 -53 119 -21 119 49 0 44 -29
        75 -70 75 -17 0 -39 -9 -50 -20z" />
        <path d="M2355 820 c-2 -3 -4 -144 -4 -313 l0 -307 69 0 70 0 2 240 c1 132 3
        272 3 312 l0 72 -68 1 c-38 0 -70 -2 -72 -5z" />
        <path d="M5230 697 c0 -76 -2 -85 -20 -90 -17 -4 -20 -14 -20 -61 0 -49 2 -56
20 -56 19 0 20 -7 20 -119 0 -112 2 -122 24 -148 21 -25 31 -28 80 -27 81 0
110 24 114 93 l3 52 -34 -6 c-50 -10 -67 12 -67 85 l0 59 43 3 42 3 3 68 3 67
-46 0 -45 0 0 69 0 69 -37 7 c-21 3 -48 9 -60 12 -22 5 -23 3 -23 -80z" />
        <path d="M5804 631 c-83 -38 -127 -152 -104 -271 14 -75 51 -127 107 -152 118
-52 228 34 240 187 9 109 -30 194 -107 233 -54 27 -82 27 -136 3z m106 -141
c44 -44 15 -160 -40 -160 -28 0 -60 47 -60 90 0 43 32 90 61 90 10 0 28 -9 39
-20z" />
        <path d="M2635 627 c-22 -5 -46 -11 -54 -13 -11 -4 -12 -19 -7 -72 3 -37 6
-129 6 -204 l0 -138 60 0 60 0 0 135 c0 122 2 137 20 155 23 23 43 25 58 7 7
-8 13 -71 14 -153 l3 -139 63 -3 62 -3 0 133 c0 142 10 178 50 178 32 0 40
-33 40 -174 l0 -136 60 0 c33 0 60 3 60 8 1 20 1 330 1 350 -1 38 -53 82 -96
82 -43 0 -88 -21 -109 -52 -9 -12 -16 -17 -16 -10 0 7 -11 24 -25 37 -37 38
-103 35 -149 -5 l-35 -31 -3 27 c-4 32 -10 35 -63 21z" />
        <path d="M3275 628 c-22 -6 -46 -12 -54 -14 -10 -3 -12 -16 -7 -51 3 -25 6
-117 6 -204 l0 -159 60 0 60 0 0 135 c0 122 2 137 20 155 24 24 43 25 61 3 10
-12 14 -52 14 -152 l0 -136 63 -3 62 -3 0 136 c0 122 2 137 20 155 23 23 43
25 58 7 7 -8 13 -71 14 -153 l3 -139 60 0 60 0 3 160 c3 189 -1 219 -35 251
-46 43 -133 27 -178 -32 -9 -12 -14 -14 -15 -6 0 7 -11 24 -25 37 -39 40 -107
33 -162 -18 l-23 -20 0 31 c0 35 -2 35 -65 20z" />
        <path d="M4120 614 c-50 -43 -64 -79 -65 -169 0 -69 4 -86 27 -126 45 -76 136
-101 189 -53 18 16 19 16 19 -9 0 -32 -42 -67 -81 -67 -16 0 -44 8 -64 17 -19
9 -37 14 -40 11 -3 -3 -8 -27 -11 -55 -6 -46 -5 -49 22 -62 16 -7 59 -16 95
-18 95 -8 152 19 182 84 20 43 22 67 25 250 4 227 11 209 -77 215 -40 3 -46 0
-51 -20 l-5 -24 -24 26 c-34 36 -97 36 -141 0z m155 -114 c38 -42 13 -140 -37
-140 -31 0 -58 36 -58 78 0 71 54 107 95 62z" />
        <path d="M4532 627 c-51 -10 -53 -11 -47 -36 3 -14 9 -108 12 -209 l6 -183 60
3 60 3 -2 113 c-1 75 2 118 10 128 6 8 29 14 50 14 22 0 39 3 40 8 0 4 2 42 4
85 l5 77 -29 0 c-15 0 -40 -9 -54 -20 -32 -25 -35 -25 -39 2 -4 27 -10 28 -76
15z" />
        <path d="M4854 621 c-43 -26 -70 -75 -83 -147 -25 -137 38 -268 136 -281 32
-4 45 0 70 21 37 31 43 32 43 6 0 -19 5 -21 58 -18 l57 3 0 203 c1 112 -2 205
-5 207 -4 2 -26 8 -50 14 -38 8 -43 7 -47 -10 -7 -24 -15 -24 -38 1 -24 27
-98 27 -141 1z m135 -128 c45 -37 35 -134 -16 -154 -55 -21 -101 45 -82 116
15 54 58 70 98 38z" />
        <path d="M6151 627 l-54 -10 7 -60 c3 -33 6 -127 6 -208 l0 -149 59 0 c44 0
60 4 65 16 3 9 6 71 6 138 0 129 5 146 47 146 35 0 43 -30 43 -169 l0 -131 60
0 60 0 0 191 0 191 -30 30 c-28 27 -36 30 -75 25 -27 -2 -59 -15 -79 -31 l-35
-26 -3 27 c-4 32 -8 33 -77 20z" />
        <path d="M3862 419 l3 -214 62 -3 62 -3 3 211 3 210 -52 0 c-28 0 -59 3 -67 6
-15 6 -16 -15 -14 -207z" />
        <path d="M5505 620 c-1 -3 0 -98 3 -212 l5 -208 58 0 59 0 0 164 c0 90 3 184
6 209 l6 45 -67 4 c-37 1 -68 1 -70 -2z" />
        <path d="M6565 428 c-37 -20 -55 -51 -55 -99 0 -138 209 -142 213 -3 2 84 -87
142 -158 102z m115 -46 c44 -55 7 -132 -65 -132 -92 0 -117 119 -33 154 39 17
74 9 98 -22z" />
        <path d="M6570 330 c0 -59 16 -83 27 -40 3 11 8 20 12 20 3 0 12 -9 19 -20 7
-11 19 -20 27 -20 19 0 19 9 -1 31 -13 14 -13 20 -2 39 11 18 10 23 -6 36 -11
8 -32 14 -48 14 -28 0 -28 -1 -28 -60z m58 22 c2 -7 -3 -12 -12 -12 -9 0 -16
7 -16 16 0 17 22 14 28 -4z" />
</g>
      
    </g>
</svg>